<svg width="316" height="183" viewBox="0 0 316 183" fill="none" xmlns="http://www.w3.org/2000/svg">
<circle cx="186.857" cy="174.5" r="4.54362" transform="rotate(-90.0107 186.857 174.5)" fill="#C4C4C4"/>
<circle cx="148.227" cy="125.285" r="3.78635" transform="rotate(-90.0107 148.227 125.285)" fill="#C4C4C4"/>
<circle cx="4.35394" cy="170.748" r="3.78635" transform="rotate(-90.0107 4.35394 170.748)" fill="#C4C4C4"/>
<circle cx="278.487" cy="178.27" r="3.78635" transform="rotate(-90.0107 278.487 178.27)" fill="#00A0DC"/>
<circle cx="96.4975" cy="164.51" r="6.05817" transform="rotate(-90.0107 96.4975 164.51)" fill="#F48056"/>
<circle cx="221.178" cy="92.178" r="4.17718" transform="rotate(-90.0107 221.178 92.178)" fill="#C4C4C4"/>
<circle cx="262.178" cy="46.178" r="4.17718" transform="rotate(-90.0107 262.178 46.178)" fill="#C4C4C4"/>
<circle cx="311.178" cy="88.178" r="4.17718" transform="rotate(-90.0107 311.178 88.178)" fill="#C4C4C4"/>
<circle cx="311.178" cy="4.17795" r="4.17718" transform="rotate(-90.0107 311.178 4.17795)" fill="#C4C4C4"/>
<circle cx="193.178" cy="17.178" r="4.17718" transform="rotate(-90.0107 193.178 17.178)" fill="#C4C4C4"/>
</svg>
