<svg width="23" height="16" viewBox="0 0 23 16" fill="none" xmlns="http://www.w3.org/2000/svg">
<rect width="23" height="16" rx="2" fill="white"/>
<mask id="mask0" mask-type="alpha" maskUnits="userSpaceOnUse" x="0" y="0" width="23" height="16">
<rect width="23" height="16" rx="2" fill="white"/>
</mask>
<g mask="url(#mask0)">
<rect width="23" height="16" fill="#F1361D"/>
<path fill-rule="evenodd" clip-rule="evenodd" d="M8.27393 2.48058L9.06943 2.61267L9.66607 3.14186L9.80169 2.36711L10.3451 1.78604L9.54955 1.65395L8.95292 1.12476L8.8173 1.89951L8.27393 2.48058ZM10.4047 5.19041L11.0941 4.78181L11.9008 4.79998L11.4813 4.12861L11.5 3.34289L10.8106 3.75149L10.0038 3.73332L10.4234 4.40469L10.4047 5.19041ZM9.46961 9.57666L8.79531 10.0084L8.78581 9.22256L8.34246 8.56586L9.14939 8.5566L9.82368 8.12482L9.83319 8.91069L10.2765 9.5674L9.46961 9.57666ZM10.0551 7.54511L10.8572 7.45853L11.5805 7.80706L11.4916 7.02591L11.8495 6.32148L11.0474 6.40806L10.3241 6.05953L10.413 6.84068L10.0551 7.54511Z" fill="#FFDC42"/>
<path fill-rule="evenodd" clip-rule="evenodd" d="M5.47614 6.5813L3.54485 7.92216L4.25743 5.71895L2.35124 4.34445L4.72294 4.32365L5.47614 2.1333L6.22935 4.32365L8.60104 4.34445L6.69485 5.71895L7.40744 7.92216L5.47614 6.5813Z" fill="#FFDC42"/>
</g>
</svg>
