<svg width="12" height="11" viewBox="0 0 12 11" fill="none" xmlns="http://www.w3.org/2000/svg">
<path fill-rule="evenodd" clip-rule="evenodd" d="M6.10173 7.23069L4.40569 5.62907C3.93727 5.18672 3.82114 4.51095 4.1174 3.95143L4.21349 3.76993C4.50975 3.21041 4.39362 2.53464 3.9252 2.09229L1.82226 0.10642C1.672 -0.0354732 1.42839 -0.0354732 1.27813 0.10642C1.24889 0.134034 1.22455 0.16592 1.20606 0.200849L0.356528 1.80532C-0.293371 3.03276 -0.0386216 4.51521 0.98896 5.48558L5.60516 9.8448C6.72369 10.9011 8.37817 11.2699 9.87882 10.7975L11.7368 10.2127C11.9384 10.1492 12.0473 9.94344 11.9802 9.75307C11.9613 9.69956 11.9294 9.65094 11.8872 9.61105L9.847 7.68443C9.37858 7.24208 8.66297 7.13242 8.07046 7.41218L7.87827 7.50293C7.28576 7.78269 6.57015 7.67303 6.10173 7.23069V7.23069Z" fill="black"/>
</svg>
